<svg width="966" height="427" viewBox="0 0 966 427" fill="none" xmlns="http://www.w3.org/2000/svg">
<path d="M257.13 353.395C255.29 350.635 251.61 348.795 248.85 348.795H238.731C234.131 308.317 201.012 267.838 158.694 254.959C139.375 248.519 118.215 248.519 98.8962 254.959C57.4978 267.838 23.4591 308.317 19.7792 348.795H9.65963C6.89973 348.795 3.21988 350.635 1.37995 353.395C-0.459982 356.155 -0.459982 359.835 1.37995 362.594C14.2594 388.353 40.0184 403.993 69.4573 403.993H189.973C218.492 403.993 245.17 388.353 258.05 361.675C258.05 358.915 258.05 356.155 257.13 353.395ZM104.416 272.438C120.055 267.838 137.535 267.838 153.174 272.438C187.213 282.558 215.732 315.676 220.331 348.795H38.1785C42.7783 315.676 70.3773 283.478 104.416 272.438ZM189.053 385.594H69.4573C52.898 385.594 38.1785 379.154 27.1389 367.194H231.371C220.331 379.154 205.612 385.594 189.053 385.594Z" fill="#99FFFF"/>
<path d="M223.5 315.175L133.5 252.5C131.164 250.79 113.473 254.963 115 252.5L198.773 121.885C182.497 106.799 179.739 81.506 193.157 63.1716C207.629 43.3962 236.311 38.7406 255.796 53C259.868 55.9803 263.285 59.6969 265.889 63.96C284.814 51.2843 312.573 54.3582 337.459 72.5705C360.837 89.6792 370.272 111.097 366.188 137.918C371.454 139.051 376.429 141.277 380.815 144.486C400.296 158.75 404.533 187.496 390.061 207.272C376.643 225.606 351.7 230.627 332.399 219.677L234 337C232.115 339.201 225.836 316.884 223.5 315.175ZM133.5 240L238 317.5L327.121 208.784C329.011 206.587 332.274 206.213 334.61 207.922C349.418 218.759 370.274 215.53 381.111 200.722C392.983 184.5 387.029 162.784 374.262 153.441C369.867 150.225 364.866 148.448 359.396 148.176C357.772 148.094 356.252 147.298 355.27 146.001C354.28 144.706 353.907 143.046 354.259 141.448C359.766 116.252 352.349 97.2113 330.909 81.5207C307.831 64.6315 282.46 62.6598 267.777 76.6112C266.427 77.8915 264.528 78.4118 262.713 77.9905C260.896 77.5814 259.412 76.2756 258.765 74.5307C256.851 69.3989 253.645 65.1695 249.25 61.9535C236.478 52.6066 213.979 53.4994 202.107 69.7216C191.27 84.5297 194.5 105.385 209.308 116.222C211.644 117.932 212.274 121.155 210.747 123.618L133.5 240Z" fill="#99FFFF"/>
<path d="M260.471 295.919L147.475 213.225C145.005 211.417 144.464 207.95 146.275 205.475C148.086 203 151.555 202.467 154.025 204.275L267.021 286.969C269.491 288.777 270.032 292.244 268.221 294.719C266.41 297.194 262.941 297.727 260.471 295.919Z" fill="#99FFFF"/>
<path d="M176.475 235.026C174.005 233.218 173.464 229.751 175.275 227.276L201.475 191.475C203.286 189 206.755 188.467 209.225 190.275C211.695 192.083 212.236 195.55 210.425 198.025L184.225 233.826C182.414 236.301 178.945 236.834 176.475 235.026Z" fill="#99FFFF"/>
<path d="M209.475 250.976C207.005 249.168 206.464 245.701 208.275 243.226L241.025 198.475C242.836 196 246.305 195.467 248.775 197.275C251.245 199.083 251.786 202.55 249.975 205.025L217.225 249.776C215.414 252.251 211.945 252.784 209.475 250.976Z" fill="#99FFFF"/>
<path d="M233.475 272.026C231.005 270.218 230.464 266.751 232.275 264.276L258.475 228.475C260.286 226 263.755 225.467 266.225 227.275C268.695 229.083 269.236 232.55 267.425 235.025L241.225 270.826C239.414 273.301 235.945 273.834 233.475 272.026Z" fill="#99FFFF"/>
<path d="M424.059 347.455V352.66C415.09 362.643 406.842 370.865 399.314 377.324C391.84 383.837 384.527 388.829 377.373 392.299C370.219 395.822 363.306 397.584 356.633 397.584C350.867 397.584 345.902 396.436 341.738 394.141C337.628 391.845 334.505 388.482 332.369 384.051C330.287 379.673 329.246 374.468 329.246 368.436C329.246 363.684 329.993 358.666 331.488 353.381C333.036 348.042 335.252 342.677 338.135 337.285C341.018 331.84 344.541 326.234 348.705 320.469C352.923 314.703 357.861 308.644 363.52 302.291C369.392 295.725 375.184 290.066 380.896 285.314C386.609 280.51 391.787 276.746 396.432 274.023C401.076 271.301 405.374 269.272 409.324 267.938C413.328 266.603 416.638 265.936 419.254 265.936C421.923 265.936 424.192 266.576 426.061 267.857C427.929 269.139 429.37 271.007 430.385 273.463C431.399 275.919 431.906 278.748 431.906 281.951C431.906 287.984 429.851 294.71 425.74 302.131C421.63 309.498 416.505 316.625 410.365 323.512C404.226 330.398 398.354 336.031 392.748 340.408C387.196 344.732 383.192 346.895 380.736 346.895C379.081 346.895 377.533 346.254 376.092 344.973C374.704 343.638 374.01 342.143 374.01 340.488C374.01 337.445 375.611 333.762 378.814 329.438C382.071 325.113 385.594 321.163 389.385 317.586C393.229 313.956 395.524 312.141 396.271 312.141C396.645 312.141 396.832 312.301 396.832 312.621C396.832 313.102 396.538 313.929 395.951 315.104C395.417 316.278 395.15 316.999 395.15 317.266C395.15 317.693 395.311 317.906 395.631 317.906C396.538 317.906 399.154 315.477 403.479 310.619C407.803 305.761 411.753 300.423 415.33 294.604C418.96 288.731 420.775 283.926 420.775 280.189C420.775 278.641 420.428 277.467 419.734 276.666C419.094 275.812 418.106 275.385 416.771 275.385C413.035 275.385 407.349 278.428 399.715 284.514C392.134 290.546 384.34 298.26 376.332 307.656C368.378 316.999 361.731 326.661 356.393 336.645C351.054 346.628 348.385 355.41 348.385 362.99C348.385 367.368 349.025 371.025 350.307 373.961C351.641 376.897 353.563 379.166 356.072 380.768C358.635 382.369 361.704 383.17 365.281 383.17C373.022 383.17 381.804 380.154 391.627 374.121C401.45 368.089 412.26 359.2 424.059 347.455ZM474.908 347.615V352.98C471.385 356.184 468.555 358.319 466.42 359.387C464.285 360.454 461.215 360.882 457.211 360.668C450.271 368.889 444.158 373 438.873 373C435.883 373 433.161 372.012 430.705 370.037C428.249 368.062 426.274 365.366 424.779 361.949C423.338 358.533 422.617 354.715 422.617 350.498C422.617 347.081 423.738 343.291 425.98 339.127C428.276 334.963 431.212 331.092 434.789 327.516C438.419 323.885 442.29 320.976 446.4 318.787C450.511 316.545 454.328 315.424 457.852 315.424C460.361 315.424 462.336 315.824 463.777 316.625C465.219 317.372 465.939 318.44 465.939 319.828C465.939 320.896 465.326 322.124 464.098 323.512C466.126 323.939 467.514 324.66 468.262 325.674C469.009 326.635 469.383 328.423 469.383 331.039C469.383 333.602 468.769 336.831 467.541 340.729C466.367 344.626 464.738 348.283 462.656 351.699L464.098 353.141H465.299C466.206 353.141 467.087 352.927 467.941 352.5C468.849 352.02 469.65 351.539 470.344 351.059C471.038 350.525 472.559 349.377 474.908 347.615ZM458.412 326.555C453.981 329.224 450.191 331.653 447.041 333.842C443.891 335.977 441.222 338.166 439.033 340.408C436.844 342.597 435.376 344.812 434.629 347.055C433.294 353.034 432.627 356.264 432.627 356.744C432.627 360.268 435.083 362.029 439.994 362.029C442.29 362.029 446.133 360.054 451.525 356.104C450.618 353.594 450.164 351.192 450.164 348.896C450.164 345.533 450.858 342.117 452.246 338.646C453.634 335.123 455.689 331.092 458.412 326.555ZM474.508 350.018V348.096C488.281 333.575 497.757 323.405 502.936 317.586C504.11 311.02 506.939 307.736 511.424 307.736C512.545 307.736 513.746 308.057 515.027 308.697L515.508 310.219C515.294 310.859 515.188 311.767 515.188 312.941C515.188 313.956 515.561 315.851 516.309 318.627C517.109 321.35 517.723 323.645 518.15 325.514C518.577 327.382 518.791 329.491 518.791 331.84C518.791 335.363 517.99 338.753 516.389 342.01C514.787 345.213 512.465 348.309 509.422 351.299C506.379 354.235 502.455 357.251 497.65 360.348C499.572 360.668 501.094 360.828 502.215 360.828C504.404 360.828 506.753 360.294 509.262 359.227C511.824 358.105 514.413 356.637 517.029 354.822C519.699 352.954 522.795 350.551 526.318 347.615V352.98C519.485 359.654 513.372 364.725 507.98 368.195C502.589 371.612 497.944 373.32 494.047 373.32C489.029 373.32 484.384 371.185 480.113 366.914C477.604 364.352 476.029 361.896 475.389 359.547C474.801 357.198 474.508 354.021 474.508 350.018ZM504.377 337.766L502.936 326.074C499.626 329.811 492.552 336.992 481.715 347.615C484.918 348.309 487.107 349.243 488.281 350.418C489.456 351.592 491.111 353.861 493.246 357.225C496.876 355.73 499.652 353.701 501.574 351.139C503.549 348.523 504.537 344.973 504.537 340.488C504.537 339.954 504.51 339.474 504.457 339.047C504.457 338.62 504.43 338.193 504.377 337.766ZM562.674 358.746C570.041 352.233 576.367 346.574 581.652 341.77C586.938 336.911 591.075 333.094 594.064 330.318C597.107 327.542 599.777 325.193 602.072 323.271C604.368 321.35 605.836 320.389 606.477 320.389C607.704 320.335 608.879 321.617 610 324.232C611.121 326.795 611.682 328.85 611.682 330.398C611.682 331.413 609.973 333.815 606.557 337.605C603.193 341.342 600.658 344.332 598.949 346.574C597.294 348.816 596.467 351.165 596.467 353.621C596.467 355.062 596.947 356.237 597.908 357.145C598.869 357.999 600.017 358.426 601.352 358.426C602.9 358.426 604.742 357.625 606.877 356.023C609.066 354.422 612.482 351.566 617.127 347.455V353.141C612.482 357.518 608.265 361.309 604.475 364.512C600.684 367.661 597.374 370.037 594.545 371.639C591.769 373.187 589.447 373.961 587.578 373.961C585.923 373.961 584.535 373.347 583.414 372.119C582.293 370.838 581.732 369.263 581.732 367.395C581.732 365.579 582.053 363.738 582.693 361.869C583.334 360.001 584.322 357.785 585.656 355.223C586.991 352.66 588.753 349.59 590.941 346.014C593.13 342.383 595.132 339.074 596.947 336.084C591.502 340.515 586.671 344.786 582.453 348.896C578.236 353.007 574.792 356.611 572.123 359.707C569.454 362.75 567.345 365.152 565.797 366.914C562.807 370.224 560.031 371.879 557.469 371.879C554.693 371.879 553.305 369.904 553.305 365.953C553.305 364.352 554.346 361.495 556.428 357.385C558.51 353.221 561.473 347.936 565.316 341.529C565.637 341.102 565.797 340.435 565.797 339.527C565.797 338.46 565.263 337.926 564.195 337.926C563.021 337.926 561.312 339.047 559.07 341.289C556.882 343.478 552.611 348.096 546.258 355.143C544.496 357.118 542.494 359.707 540.252 362.91C538.063 366.06 536.488 368.169 535.527 369.236C534.566 370.304 533.605 370.838 532.645 370.838C530.723 370.838 528.934 369.13 527.279 365.713C525.624 362.296 524.797 358.319 524.797 353.781C524.797 350.471 525.331 347.615 526.398 345.213C527.52 342.811 529.228 339.821 531.523 336.244C535.1 331.066 538.01 327.382 540.252 325.193C542.548 322.951 544.95 321.83 547.459 321.83C549.007 321.83 550.315 322.15 551.383 322.791C552.451 323.378 552.984 324.206 552.984 325.273C552.984 326.395 551.997 328.236 550.021 330.799C548.1 333.361 545.644 336.004 542.654 338.727C541.053 340.275 539.531 342.197 538.09 344.492C536.648 346.734 535.928 348.363 535.928 349.377C535.928 350.818 536.488 351.539 537.609 351.539C538.517 351.539 540.812 349.671 544.496 345.934C548.18 342.197 552.21 338.139 556.588 333.762C561.019 329.331 565.103 325.674 568.84 322.791C572.63 319.855 575.833 318.387 578.449 318.387C580.051 318.387 581.359 319.001 582.373 320.229C583.441 321.403 583.975 322.871 583.975 324.633C583.975 325.807 583.174 327.943 581.572 331.039C579.971 334.082 577.622 337.872 574.525 342.41C571.482 346.895 567.532 352.34 562.674 358.746ZM668.057 347.615V352.98C664.533 356.184 661.704 358.319 659.568 359.387C657.433 360.454 654.363 360.882 650.359 360.668C643.419 368.889 637.307 373 632.021 373C629.032 373 626.309 372.012 623.854 370.037C621.398 368.062 619.423 365.366 617.928 361.949C616.486 358.533 615.766 354.715 615.766 350.498C615.766 347.081 616.887 343.291 619.129 339.127C621.424 334.963 624.361 331.092 627.938 327.516C631.568 323.885 635.438 320.976 639.549 318.787C643.66 316.545 647.477 315.424 651 315.424C653.509 315.424 655.484 315.824 656.926 316.625C658.367 317.372 659.088 318.44 659.088 319.828C659.088 320.896 658.474 322.124 657.246 323.512C659.275 323.939 660.663 324.66 661.41 325.674C662.158 326.635 662.531 328.423 662.531 331.039C662.531 333.602 661.917 336.831 660.689 340.729C659.515 344.626 657.887 348.283 655.805 351.699L657.246 353.141H658.447C659.355 353.141 660.236 352.927 661.09 352.5C661.997 352.02 662.798 351.539 663.492 351.059C664.186 350.525 665.708 349.377 668.057 347.615ZM651.561 326.555C647.13 329.224 643.339 331.653 640.189 333.842C637.04 335.977 634.37 338.166 632.182 340.408C629.993 342.597 628.525 344.812 627.777 347.055C626.443 353.034 625.775 356.264 625.775 356.744C625.775 360.268 628.231 362.029 633.143 362.029C635.438 362.029 639.282 360.054 644.674 356.104C643.766 353.594 643.312 351.192 643.312 348.896C643.312 345.533 644.007 342.117 645.395 338.646C646.783 335.123 648.838 331.092 651.561 326.555ZM667.656 350.018V348.096C681.43 333.575 690.906 323.405 696.084 317.586C697.258 311.02 700.088 307.736 704.572 307.736C705.693 307.736 706.895 308.057 708.176 308.697L708.656 310.219C708.443 310.859 708.336 311.767 708.336 312.941C708.336 313.956 708.71 315.851 709.457 318.627C710.258 321.35 710.872 323.645 711.299 325.514C711.726 327.382 711.939 329.491 711.939 331.84C711.939 335.363 711.139 338.753 709.537 342.01C707.936 345.213 705.613 348.309 702.57 351.299C699.527 354.235 695.604 357.251 690.799 360.348C692.721 360.668 694.242 360.828 695.363 360.828C697.552 360.828 699.901 360.294 702.41 359.227C704.973 358.105 707.562 356.637 710.178 354.822C712.847 352.954 715.943 350.551 719.467 347.615V352.98C712.633 359.654 706.521 364.725 701.129 368.195C695.737 371.612 691.092 373.32 687.195 373.32C682.177 373.32 677.533 371.185 673.262 366.914C670.753 364.352 669.178 361.896 668.537 359.547C667.95 357.198 667.656 354.021 667.656 350.018ZM697.525 337.766L696.084 326.074C692.774 329.811 685.701 336.992 674.863 347.615C678.066 348.309 680.255 349.243 681.43 350.418C682.604 351.592 684.259 353.861 686.395 357.225C690.025 355.73 692.801 353.701 694.723 351.139C696.698 348.523 697.686 344.973 697.686 340.488C697.686 339.954 697.659 339.474 697.605 339.047C697.605 338.62 697.579 338.193 697.525 337.766Z" fill="#99FFFF"/>
</svg>
