<svg width="436" height="404" viewBox="0 0 436 404" fill="none" xmlns="http://www.w3.org/2000/svg">
<path d="M257.13 353.395C255.29 350.635 251.61 348.795 248.85 348.795H238.731C234.131 308.317 201.012 267.838 158.694 254.959C139.375 248.519 118.215 248.519 98.8962 254.959C57.4978 267.838 23.4591 308.317 19.7792 348.795H9.65963C6.89973 348.795 3.21988 350.635 1.37995 353.395C-0.459982 356.155 -0.459982 359.835 1.37995 362.594C14.2594 388.353 40.0184 403.993 69.4573 403.993H189.973C218.492 403.993 245.17 388.353 258.05 361.675C258.05 358.915 258.05 356.155 257.13 353.395ZM104.416 272.438C120.055 267.838 137.535 267.838 153.174 272.438C187.213 282.558 215.732 315.676 220.331 348.795H38.1785C42.7783 315.676 70.3773 283.478 104.416 272.438ZM189.053 385.594H69.4573C52.898 385.594 38.1785 379.154 27.1389 367.194H231.371C220.331 379.154 205.612 385.594 189.053 385.594Z" fill="#99FFFF"/>
<path d="M223.5 315.175L133.5 252.5C131.164 250.79 113.473 254.963 115 252.5L198.773 121.885C182.497 106.799 179.739 81.506 193.157 63.1716C207.629 43.3962 236.311 38.7406 255.796 53C259.868 55.9803 263.285 59.6969 265.889 63.96C284.814 51.2843 312.573 54.3582 337.459 72.5705C360.837 89.6792 370.272 111.097 366.188 137.918C371.454 139.051 376.429 141.277 380.815 144.486C400.296 158.75 404.533 187.496 390.061 207.272C376.643 225.606 351.7 230.627 332.399 219.677L234 337C232.115 339.201 225.836 316.884 223.5 315.175ZM133.5 240L238 317.5L327.121 208.784C329.011 206.587 332.274 206.213 334.61 207.922C349.418 218.759 370.274 215.53 381.111 200.722C392.983 184.5 387.029 162.784 374.262 153.441C369.867 150.225 364.866 148.448 359.396 148.176C357.772 148.094 356.252 147.298 355.27 146.001C354.28 144.706 353.907 143.046 354.259 141.448C359.766 116.252 352.349 97.2113 330.909 81.5207C307.831 64.6315 282.46 62.6598 267.777 76.6112C266.427 77.8915 264.528 78.4118 262.713 77.9905C260.896 77.5814 259.412 76.2756 258.765 74.5307C256.851 69.3989 253.645 65.1695 249.25 61.9535C236.478 52.6066 213.979 53.4994 202.107 69.7216C191.27 84.5297 194.5 105.385 209.308 116.222C211.644 117.932 212.274 121.155 210.747 123.618L133.5 240Z" fill="#99FFFF"/>
<path d="M260.471 295.919L147.475 213.225C145.005 211.417 144.464 207.95 146.275 205.475C148.086 203 151.555 202.467 154.025 204.275L267.021 286.969C269.491 288.777 270.032 292.244 268.221 294.719C266.41 297.194 262.941 297.727 260.471 295.919Z" fill="#99FFFF"/>
<path d="M176.475 235.026C174.005 233.218 173.464 229.751 175.275 227.276L201.475 191.475C203.286 189 206.755 188.467 209.225 190.275C211.695 192.083 212.236 195.55 210.425 198.025L184.225 233.826C182.414 236.301 178.945 236.834 176.475 235.026Z" fill="#99FFFF"/>
<path d="M209.475 250.976C207.005 249.168 206.464 245.701 208.275 243.226L241.025 198.475C242.836 196 246.305 195.467 248.775 197.275C251.245 199.083 251.786 202.55 249.975 205.025L217.225 249.776C215.414 252.251 211.945 252.784 209.475 250.976Z" fill="#99FFFF"/>
<path d="M233.475 272.026C231.005 270.218 230.464 266.751 232.275 264.276L258.475 228.475C260.286 226 263.755 225.467 266.225 227.275C268.695 229.083 269.236 232.55 267.425 235.025L241.225 270.826C239.414 273.301 235.945 273.834 233.475 272.026Z" fill="#99FFFF"/>
</svg>
