<svg width="391" height="133" viewBox="0 0 391 133" fill="none" xmlns="http://www.w3.org/2000/svg">
<path d="M95.0586 82.4551V87.6602C86.0898 97.6432 77.8418 105.865 70.3145 112.324C62.8405 118.837 55.5267 123.829 48.373 127.299C41.2194 130.822 34.306 132.584 27.6328 132.584C21.8672 132.584 16.9023 131.436 12.7383 129.141C8.6276 126.845 5.50456 123.482 3.36914 119.051C1.28711 114.673 0.246094 109.468 0.246094 103.436C0.246094 98.6842 0.99349 93.666 2.48828 88.3809C4.03646 83.0423 6.25195 77.6771 9.13477 72.2852C12.0176 66.8398 15.541 61.2344 19.7051 55.4688C23.9225 49.7031 28.8607 43.6439 34.5195 37.291C40.3919 30.7246 46.1842 25.0658 51.8965 20.3145C57.6087 15.5098 62.7871 11.7461 67.4316 9.02344C72.0762 6.30078 76.3737 4.27214 80.3242 2.9375C84.3281 1.60286 87.638 0.935547 90.2539 0.935547C92.9232 0.935547 95.1921 1.57617 97.0605 2.85742C98.929 4.13867 100.37 6.00716 101.385 8.46289C102.399 10.9186 102.906 13.748 102.906 16.9512C102.906 22.9837 100.851 29.7103 96.7402 37.1309C92.6296 44.498 87.5046 51.625 81.3652 58.5117C75.2259 65.3984 69.3535 71.0306 63.748 75.4082C58.196 79.7324 54.1921 81.8945 51.7363 81.8945C50.0814 81.8945 48.5332 81.2539 47.0918 79.9727C45.7038 78.638 45.0098 77.1432 45.0098 75.4883C45.0098 72.4453 46.6113 68.7617 49.8145 64.4375C53.071 60.1133 56.5944 56.1628 60.3848 52.5859C64.2285 48.9557 66.5241 47.1406 67.2715 47.1406C67.6452 47.1406 67.832 47.3008 67.832 47.6211C67.832 48.1016 67.5384 48.929 66.9512 50.1035C66.4173 51.278 66.1504 51.9987 66.1504 52.2656C66.1504 52.6927 66.3105 52.9062 66.6309 52.9062C67.5384 52.9062 70.1543 50.4772 74.4785 45.6191C78.8027 40.7611 82.7533 35.4225 86.3301 29.6035C89.9603 23.7311 91.7754 18.9264 91.7754 15.1895C91.7754 13.6413 91.4284 12.4668 90.7344 11.666C90.0938 10.8118 89.1061 10.3848 87.7715 10.3848C84.0345 10.3848 78.349 13.4277 70.7148 19.5137C63.1341 25.5462 55.3398 33.2604 47.332 42.6562C39.3776 51.9987 32.7311 61.6615 27.3926 71.6445C22.054 81.6276 19.3848 90.4095 19.3848 97.9902C19.3848 102.368 20.0254 106.025 21.3066 108.961C22.6413 111.897 24.5632 114.166 27.0723 115.768C29.6348 117.369 32.7044 118.17 36.2812 118.17C44.0221 118.17 52.804 115.154 62.627 109.121C72.4499 103.089 83.2604 94.1999 95.0586 82.4551ZM145.908 82.6152V87.9805C142.385 91.1836 139.555 93.319 137.42 94.3867C135.285 95.4544 132.215 95.8815 128.211 95.668C121.271 103.889 115.158 108 109.873 108C106.883 108 104.161 107.012 101.705 105.037C99.2493 103.062 97.2741 100.366 95.7793 96.9492C94.3379 93.5326 93.6172 89.7155 93.6172 85.498C93.6172 82.0814 94.7383 78.291 96.9805 74.127C99.276 69.9629 102.212 66.0924 105.789 62.5156C109.419 58.8854 113.29 55.9759 117.4 53.7871C121.511 51.5449 125.328 50.4238 128.852 50.4238C131.361 50.4238 133.336 50.8242 134.777 51.625C136.219 52.3724 136.939 53.4401 136.939 54.8281C136.939 55.8958 136.326 57.1237 135.098 58.5117C137.126 58.9388 138.514 59.6595 139.262 60.6738C140.009 61.6348 140.383 63.4232 140.383 66.0391C140.383 68.6016 139.769 71.8314 138.541 75.7285C137.367 79.6257 135.738 83.2826 133.656 86.6992L135.098 88.1406H136.299C137.206 88.1406 138.087 87.9271 138.941 87.5C139.849 87.0195 140.65 86.5391 141.344 86.0586C142.038 85.5247 143.559 84.377 145.908 82.6152ZM129.412 61.5547C124.981 64.224 121.191 66.653 118.041 68.8418C114.891 70.9772 112.222 73.166 110.033 75.4082C107.844 77.597 106.376 79.8125 105.629 82.0547C104.294 88.0339 103.627 91.2637 103.627 91.7441C103.627 95.2676 106.083 97.0293 110.994 97.0293C113.29 97.0293 117.133 95.054 122.525 91.1035C121.618 88.5944 121.164 86.1921 121.164 83.8965C121.164 80.5332 121.858 77.1165 123.246 73.6465C124.634 70.123 126.689 66.0924 129.412 61.5547ZM145.508 85.0176V83.0957C159.281 68.5749 168.757 58.4049 173.936 52.5859C175.11 46.0195 177.939 42.7363 182.424 42.7363C183.545 42.7363 184.746 43.0566 186.027 43.6973L186.508 45.2188C186.294 45.8594 186.188 46.7669 186.188 47.9414C186.188 48.9557 186.561 50.8509 187.309 53.627C188.109 56.3496 188.723 58.6452 189.15 60.5137C189.577 62.3822 189.791 64.4909 189.791 66.8398C189.791 70.3633 188.99 73.7533 187.389 77.0098C185.787 80.2129 183.465 83.3092 180.422 86.2988C177.379 89.235 173.455 92.2513 168.65 95.3477C170.572 95.668 172.094 95.8281 173.215 95.8281C175.404 95.8281 177.753 95.2943 180.262 94.2266C182.824 93.1055 185.413 91.6374 188.029 89.8223C190.699 87.9538 193.795 85.5514 197.318 82.6152V87.9805C190.485 94.6536 184.372 99.7253 178.98 103.195C173.589 106.612 168.944 108.32 165.047 108.32C160.029 108.32 155.384 106.185 151.113 101.914C148.604 99.3516 147.029 96.8958 146.389 94.5469C145.801 92.1979 145.508 89.0215 145.508 85.0176ZM175.377 72.7656L173.936 61.0742C170.626 64.8112 163.552 71.9915 152.715 82.6152C155.918 83.3092 158.107 84.2435 159.281 85.418C160.456 86.5924 162.111 88.8613 164.246 92.2246C167.876 90.7298 170.652 88.7012 172.574 86.1387C174.549 83.5228 175.537 79.9727 175.537 75.4883C175.537 74.9544 175.51 74.474 175.457 74.0469C175.457 73.6198 175.43 73.1927 175.377 72.7656ZM233.674 93.7461C241.041 87.2331 247.367 81.5742 252.652 76.7695C257.938 71.9115 262.075 68.0944 265.064 65.3184C268.107 62.5423 270.777 60.1934 273.072 58.2715C275.368 56.3496 276.836 55.3887 277.477 55.3887C278.704 55.3353 279.879 56.6165 281 59.2324C282.121 61.7949 282.682 63.8503 282.682 65.3984C282.682 66.4128 280.973 68.8151 277.557 72.6055C274.193 76.3424 271.658 79.332 269.949 81.5742C268.294 83.8164 267.467 86.1654 267.467 88.6211C267.467 90.0625 267.947 91.237 268.908 92.1445C269.869 92.9987 271.017 93.4258 272.352 93.4258C273.9 93.4258 275.742 92.625 277.877 91.0234C280.066 89.4219 283.482 86.5658 288.127 82.4551V88.1406C283.482 92.5182 279.265 96.3086 275.475 99.5117C271.684 102.661 268.374 105.037 265.545 106.639C262.769 108.187 260.447 108.961 258.578 108.961C256.923 108.961 255.535 108.347 254.414 107.119C253.293 105.838 252.732 104.263 252.732 102.395C252.732 100.579 253.053 98.7376 253.693 96.8691C254.334 95.0007 255.322 92.7852 256.656 90.2227C257.991 87.6602 259.753 84.5905 261.941 81.0137C264.13 77.3835 266.132 74.0736 267.947 71.084C262.502 75.515 257.671 79.7858 253.453 83.8965C249.236 88.0072 245.792 91.6107 243.123 94.707C240.454 97.75 238.345 100.152 236.797 101.914C233.807 105.224 231.031 106.879 228.469 106.879C225.693 106.879 224.305 104.904 224.305 100.953C224.305 99.3516 225.346 96.4954 227.428 92.3848C229.51 88.2207 232.473 82.9355 236.316 76.5293C236.637 76.1022 236.797 75.4349 236.797 74.5273C236.797 73.4596 236.263 72.9258 235.195 72.9258C234.021 72.9258 232.312 74.0469 230.07 76.2891C227.882 78.4779 223.611 83.0957 217.258 90.1426C215.496 92.1178 213.494 94.707 211.252 97.9102C209.063 101.06 207.488 103.169 206.527 104.236C205.566 105.304 204.605 105.838 203.645 105.838C201.723 105.838 199.934 104.13 198.279 100.713C196.624 97.2962 195.797 93.319 195.797 88.7812C195.797 85.4714 196.331 82.6152 197.398 80.2129C198.52 77.8105 200.228 74.821 202.523 71.2441C206.1 66.0658 209.01 62.3822 211.252 60.1934C213.548 57.9512 215.95 56.8301 218.459 56.8301C220.007 56.8301 221.315 57.1504 222.383 57.791C223.451 58.3783 223.984 59.2057 223.984 60.2734C223.984 61.3945 222.997 63.2363 221.021 65.7988C219.1 68.3613 216.644 71.0039 213.654 73.7266C212.053 75.2747 210.531 77.1966 209.09 79.4922C207.648 81.7344 206.928 83.3626 206.928 84.377C206.928 85.8184 207.488 86.5391 208.609 86.5391C209.517 86.5391 211.812 84.6706 215.496 80.9336C219.18 77.1966 223.21 73.1393 227.588 68.7617C232.019 64.3307 236.103 60.6738 239.84 57.791C243.63 54.8548 246.833 53.3867 249.449 53.3867C251.051 53.3867 252.359 54.0007 253.373 55.2285C254.441 56.403 254.975 57.8711 254.975 59.6328C254.975 60.8073 254.174 62.9427 252.572 66.0391C250.971 69.082 248.622 72.8724 245.525 77.4102C242.482 81.8945 238.532 87.3398 233.674 93.7461ZM339.057 82.6152V87.9805C335.533 91.1836 332.704 93.319 330.568 94.3867C328.433 95.4544 325.363 95.8815 321.359 95.668C314.419 103.889 308.307 108 303.021 108C300.032 108 297.309 107.012 294.854 105.037C292.398 103.062 290.423 100.366 288.928 96.9492C287.486 93.5326 286.766 89.7155 286.766 85.498C286.766 82.0814 287.887 78.291 290.129 74.127C292.424 69.9629 295.361 66.0924 298.938 62.5156C302.568 58.8854 306.438 55.9759 310.549 53.7871C314.66 51.5449 318.477 50.4238 322 50.4238C324.509 50.4238 326.484 50.8242 327.926 51.625C329.367 52.3724 330.088 53.4401 330.088 54.8281C330.088 55.8958 329.474 57.1237 328.246 58.5117C330.275 58.9388 331.663 59.6595 332.41 60.6738C333.158 61.6348 333.531 63.4232 333.531 66.0391C333.531 68.6016 332.917 71.8314 331.689 75.7285C330.515 79.6257 328.887 83.2826 326.805 86.6992L328.246 88.1406H329.447C330.355 88.1406 331.236 87.9271 332.09 87.5C332.997 87.0195 333.798 86.5391 334.492 86.0586C335.186 85.5247 336.708 84.377 339.057 82.6152ZM322.561 61.5547C318.13 64.224 314.339 66.653 311.189 68.8418C308.04 70.9772 305.37 73.166 303.182 75.4082C300.993 77.597 299.525 79.8125 298.777 82.0547C297.443 88.0339 296.775 91.2637 296.775 91.7441C296.775 95.2676 299.231 97.0293 304.143 97.0293C306.438 97.0293 310.282 95.054 315.674 91.1035C314.766 88.5944 314.312 86.1921 314.312 83.8965C314.312 80.5332 315.007 77.1165 316.395 73.6465C317.783 70.123 319.838 66.0924 322.561 61.5547ZM338.656 85.0176V83.0957C352.43 68.5749 361.906 58.4049 367.084 52.5859C368.258 46.0195 371.088 42.7363 375.572 42.7363C376.693 42.7363 377.895 43.0566 379.176 43.6973L379.656 45.2188C379.443 45.8594 379.336 46.7669 379.336 47.9414C379.336 48.9557 379.71 50.8509 380.457 53.627C381.258 56.3496 381.872 58.6452 382.299 60.5137C382.726 62.3822 382.939 64.4909 382.939 66.8398C382.939 70.3633 382.139 73.7533 380.537 77.0098C378.936 80.2129 376.613 83.3092 373.57 86.2988C370.527 89.235 366.604 92.2513 361.799 95.3477C363.721 95.668 365.242 95.8281 366.363 95.8281C368.552 95.8281 370.901 95.2943 373.41 94.2266C375.973 93.1055 378.562 91.6374 381.178 89.8223C383.847 87.9538 386.943 85.5514 390.467 82.6152V87.9805C383.633 94.6536 377.521 99.7253 372.129 103.195C366.737 106.612 362.092 108.32 358.195 108.32C353.177 108.32 348.533 106.185 344.262 101.914C341.753 99.3516 340.178 96.8958 339.537 94.5469C338.95 92.1979 338.656 89.0215 338.656 85.0176ZM368.525 72.7656L367.084 61.0742C363.774 64.8112 356.701 71.9915 345.863 82.6152C349.066 83.3092 351.255 84.2435 352.43 85.418C353.604 86.5924 355.259 88.8613 357.395 92.2246C361.025 90.7298 363.801 88.7012 365.723 86.1387C367.698 83.5228 368.686 79.9727 368.686 75.4883C368.686 74.9544 368.659 74.474 368.605 74.0469C368.605 73.6198 368.579 73.1927 368.525 72.7656Z" fill="#99FFFF"/>
</svg>
